{"title":"The Longest Way - One Year Journey On Foot Through China WR Xvid","uid":5318570,"size":69640120,"categoryP":"video","categoryS":"other","magnet":"?xt=urn:btih:bcb8d7f6eda09c8022f9019cea6e2412121d8d42&amp;dn=The+Longest+Way+-+One+Year+Journey+On+Foot+Through+China+WR+Xvid&amp;tr=udp%3A%2F%2Ftracker.openbittorrent.com%3A80&amp;tr=udp%3A%2F%2Fopen.demonii.com%3A1337&amp;tr=udp%3A%2F%2Ftracker.coppersurfer.tk%3A6969&amp;tr=udp%3A%2F%2Fexodus.desync.com%3A6969","seeders":0,"leechers":2,"uploader":"Dodecahedron9","files":-1,"time":1264792124,"description":"The Longest Way - One Year Journey On Foot Through China WR Xvid [Dodecahedron]\n \nOne of the most watched videos of 2009, in HQ.\n \n---\n \n   General\n \n      Format : AVI\n      Format/Info : Audio Video Interleave\n      File size : 66.4 MiB\n      Duration : 5mn 18s\n      Overall bit rate : 1 751 Kbps\n \n   Video\n \n      Format : MPEG-4 Visual\n      Format profile : Streaming Video@L1\n      Format settings, BVOP : Yes\n      Format settings, QPel : No\n      Format settings, GMC : No warppoints\n      Format settings, Matrix : Default\n      Codec ID : XVID\n      Codec ID/Hint : XviD\n      Duration : 5mn 18s\n      Bit rate : 1 609 Kbps\n      Width : 640 pixels\n      Height : 368 pixels\n      Display aspect ratio : 16/9\n      Frame rate : 30.000 fps\n      Resolution : 24 bits\n      Colorimetry : 4:2:0\n      Scan type : Progressive\n      Bits/(Pixel*Frame) : 0.228\n      Stream size : 61.0 MiB (92%)\n      Writing library : XviD 50\n \n   Audio\n \n      Format : MPEG Audio\n      Format version : Version 1\n      Format profile : Layer 3\n      Codec ID : 55\n      Codec ID/Hint : MP3\n      Bit rate mode : Constant\n      Bit rate : 128 Kbps\n      Channel(s) : 2 channels\n      Sampling rate : 44.1 KHz\n      Resolution : 16 bits\n      Stream size : 4.85 MiB (7%)\n      Alignment : Split accross interleaves\n      Interleave, duration : 26 ms (0.78 video frame)","torrent":{"xt":"urn:btih:bcb8d7f6eda09c8022f9019cea6e2412121d8d42","amp;dn":"The+Longest+Way+-+One+Year+Journey+On+Foot+Through+China+WR+Xvid","amp;tr":["udp%3A%2F%2Ftracker.openbittorrent.com%3A80","udp%3A%2F%2Fopen.demonii.com%3A1337","udp%3A%2F%2Ftracker.coppersurfer.tk%3A6969","udp%3A%2F%2Fexodus.desync.com%3A6969"],"infoHash":"bcb8d7f6eda09c8022f9019cea6e2412121d8d42","infoHashBuffer":{"type":"Buffer","data":[188,184,215,246,237,160,156,128,34,249,1,156,234,110,36,18,18,29,141,66]},"announce":[],"urlList":[]}}